<svg xmlns="http://www.w3.org/2000/svg" width="16.699" height="13.701" viewBox="0 0 16.699 13.701"><defs><style>.a{fill:#a6d141;}</style></defs><g transform="translate(0.146 -1.064)"><g transform="translate(-0.146 1.064)"><g transform="translate(0)"><path class="a" d="M24.3,27.4v-.371a.819.819,0,0,0-1.637,0V27.4a.819.819,0,0,0,1.637,0Z" transform="translate(-15.129 -18.996)"/><path class="a" d="M10.4,30.694a1.44,1.44,0,0,1-2.76,0H2a2.307,2.307,0,0,1-.994-.226v3.745a1.333,1.333,0,0,0,1.329,1.329H15.708a1.333,1.333,0,0,0,1.329-1.329V30.468a2.307,2.307,0,0,1-.994.226Z" transform="translate(-0.674 -21.841)"/><path class="a" d="M15.313,6.639H12.122a2.532,2.532,0,0,0-2.5-2.13H7.07a2.532,2.532,0,0,0-2.5,2.13H1.384A1.362,1.362,0,0,0,0,7.968v3.069a1.33,1.33,0,0,0,1.329,1.329H6.905a1.444,1.444,0,0,1,.443-.975l.026-.021a1.46,1.46,0,0,1,.183-.146c.023-.016.05-.026.074-.04A1.42,1.42,0,0,1,7.8,11.1a1.448,1.448,0,0,1,.143-.044c.041-.012.08-.029.123-.037a1.438,1.438,0,0,1,.287-.029,1.455,1.455,0,0,1,.287.029c.043.009.082.025.124.037A1.416,1.416,0,0,1,8.9,11.1a1.436,1.436,0,0,1,.165.087c.024.014.051.025.075.041a1.425,1.425,0,0,1,.182.146c.008.008.019.014.026.022a1.442,1.442,0,0,1,.443.975h5.577A1.329,1.329,0,0,0,16.7,11.037V7.969A1.362,1.362,0,0,0,15.313,6.639Zm-9.458,0A1.283,1.283,0,0,1,7.07,5.753H9.627a1.283,1.283,0,0,1,1.215.885Z" transform="translate(0.001 -4.509)"/></g></g></g></svg>