<svg xmlns="http://www.w3.org/2000/svg" width="53.978" height="53.978" viewBox="0 0 53.978 53.978"><defs><style>.a{fill:#a6d141;}</style></defs><path class="a" d="M26.989,0A26.989,26.989,0,1,0,53.978,26.989,27.019,27.019,0,0,0,26.989,0Zm0,48.235A21.246,21.246,0,1,1,48.235,26.989,21.27,21.27,0,0,1,26.989,48.235Z"/><path class="a" d="M60.639,33.636H48.51V19.052a2.222,2.222,0,1,0-4.444,0V35.858a2.222,2.222,0,0,0,2.222,2.222H60.639a2.222,2.222,0,0,0,0-4.444Z" transform="translate(-19.585 -7.48)"/></svg>