<svg xmlns="http://www.w3.org/2000/svg" width="43.786" height="35.742" viewBox="0 0 43.786 35.742"><defs><style>.a{fill:#a6d141;}</style></defs><g transform="translate(0 -36.648)"><g transform="translate(0 36.648)"><g transform="translate(0 0)"><path class="a" d="M66.974,210.4a5.7,5.7,0,0,1-5.621,0L48.63,202.6s-1.148-.7-1.148.891v7.792c0,4.1,7.469,8.53,16.682,8.53s16.682-4.425,16.682-8.53v-8.231c0-1.28-.816-.655-.816-.655Z" transform="translate(-42.271 -184.067)"/><path class="a" d="M43.053,48.97a1.177,1.177,0,0,0,0-2.18L23.671,37.1a3.738,3.738,0,0,0-3.555,0L.733,46.79a1.177,1.177,0,0,0,0,2.18L20.116,60.858a3.738,3.738,0,0,0,3.555,0" transform="translate(0 -36.648)"/><path class="a" d="M359.02,199.263V186.134s.009-.622-.36-.416a10.726,10.726,0,0,0-1.277.792,1.1,1.1,0,0,0-.229.832v11.921a.35.35,0,0,1-.215.291,2.268,2.268,0,1,0,2.288,0A.338.338,0,0,1,359.02,199.263Z" transform="translate(-316.768 -169.32)"/></g></g></g></svg>