<svg xmlns="http://www.w3.org/2000/svg" width="66.533" height="67.345" viewBox="0 0 66.533 67.345"><defs><style>.a{fill:#fff;}</style></defs><g transform="translate(-2.686)"><g transform="translate(2.686)"><path class="a" d="M14.86,323.81l.021-.047a3.443,3.443,0,0,1,1.9-1.713l2.881-1.327.153-.129q-.165-.189-.321-.39a10.975,10.975,0,0,1-2.078-6.506l-.4-.182-1.485-1.254-2.386,2.374h-.277l-2.386-2.374-1.485,1.254L5.9,314.94a2.016,2.016,0,0,0-1.136.968s-3.36,8-1.537,8H14.82Z" transform="translate(-2.686 -265.045)"/><path class="a" d="M34.04,233.57c.054,4.941,2.815,7.885,5.575,7.885,2.358,0,5.521-2.944,5.575-7.885.034-3.427-1.6-5.48-5.575-5.48S34.005,230.142,34.04,233.57Z" transform="translate(-29.298 -193.6)"/><path class="a" d="M180.186,322.049a3.39,3.39,0,0,1,1.917,1.764l.039.093h3.635l.041-.1.021-.047a3.44,3.44,0,0,1,1.894-1.713l2.882-1.327.153-.129q-.165-.189-.321-.39a10.969,10.969,0,0,1-2.077-6.506l-.4-.182-1.485-1.254-2.387,2.374h-.277l-2.387-2.374-1.485,1.254-.4.182a10.847,10.847,0,0,1-2.249,6.533c-.079.1-.159.191-.241.285l.245.206Z" transform="translate(-150.694 -265.045)"/><path class="a" d="M191.392,241.453c2.358,0,5.521-2.944,5.575-7.885.035-3.427-1.6-5.48-5.575-5.48s-5.609,2.052-5.574,5.48C185.871,238.509,188.633,241.453,191.392,241.453Z" transform="translate(-158.126 -193.599)"/><path class="a" d="M343.97,315.907a2,2,0,0,0-1.136-.968l-3.091-1.423-1.485-1.254-2.386,2.374h-.278l-2.386-2.374-1.485,1.254-.4.182a10.846,10.846,0,0,1-2.25,6.533c-.079.1-.159.191-.241.285l.245.206,2.881,1.327a3.389,3.389,0,0,1,1.917,1.764l.039.093h11.592C347.329,323.906,343.97,315.907,343.97,315.907Z" transform="translate(-279.516 -265.045)"/><path class="a" d="M337.593,233.57c.054,4.941,2.815,7.885,5.575,7.885,2.358,0,5.521-2.944,5.574-7.885.035-3.427-1.6-5.48-5.574-5.48S337.558,230.142,337.593,233.57Z" transform="translate(-286.951 -193.6)"/><path class="a" d="M95.991,371.045,92.9,369.621l-1.485-1.251-2.386,2.373h-.278l-2.386-2.373-1.485,1.251-3.092,1.424a2,2,0,0,0-1.135.969s-3.36,8-1.538,8H98.665c1.822,0-1.537-8-1.537-8A1.985,1.985,0,0,0,95.991,371.045Z" transform="translate(-67.099 -312.668)"/><path class="a" d="M115.5,284.193c-3.976,0-5.609,2.051-5.574,5.478.054,4.939,2.815,7.886,5.574,7.886,2.358,0,5.521-2.947,5.575-7.886C121.111,286.244,119.478,284.193,115.5,284.193Z" transform="translate(-93.711 -241.22)"/><path class="a" d="M247.77,371.045l-3.092-1.424-1.485-1.251-2.386,2.373h-.277l-2.386-2.373-1.486,1.251-3.091,1.424a2.006,2.006,0,0,0-1.136.969s-3.36,8-1.537,8h19.549c1.823,0-1.538-8-1.538-8A1.987,1.987,0,0,0,247.77,371.045Z" transform="translate(-195.927 -312.668)"/><path class="a" d="M267.282,297.56c2.358,0,5.521-2.947,5.575-7.886.034-3.428-1.6-5.478-5.575-5.478s-5.61,2.051-5.574,5.478C261.761,294.613,264.522,297.56,267.282,297.56Z" transform="translate(-222.54 -241.222)"/><path class="a" d="M208.129,84.1a.573.573,0,0,0,.6-.058l5.889-4.5a.572.572,0,0,0,0-.909l-5.889-4.5a.572.572,0,0,0-.919.454v9A.572.572,0,0,0,208.129,84.1Z" transform="translate(-176.793 -62.822)"/><path class="a" d="M18.7,32.53H79.036a.8.8,0,0,0,.8-.8V.8a.8.8,0,0,0-.8-.8H18.7a.8.8,0,0,0-.8.8V31.733A.8.8,0,0,0,18.7,32.53ZM48.868,6.994A9.271,9.271,0,1,1,39.6,16.265,9.271,9.271,0,0,1,48.868,6.994Z" transform="translate(-15.601)"/></g></g></svg>