<svg xmlns="http://www.w3.org/2000/svg" width="58" height="58" viewBox="0 0 58 58"><defs><style>.a{fill:#a6d141;}</style></defs><g transform="translate(-3 -3)"><path class="a" d="M5,49V11A2,2,0,0,1,7,9H31a2,2,0,0,1,2,2V31.111a7.036,7.036,0,0,1,2-1.426V6a3,3,0,0,0-3-3H27V4a3,3,0,0,1-3,3H14a3,3,0,0,1-3-3V3H6A3,3,0,0,0,3,6V53H25V52c0-.338.021-.67.051-1H7A2,2,0,0,1,5,49Z"/><path class="a" d="M17,21V18.414L14.414,21Z"/><path class="a" d="M11,39h6v6H11Z"/><path class="a" d="M11,21h2.586l-2.293-2.293,1.414-1.414L14,18.586l3-3V15H11Z"/><path class="a" d="M11,27h6v6H11Z"/><path class="a" d="M37.03,51.616l.97.97.97-.97L38.355,43h-.71Z"/><path class="a" d="M3,58a3,3,0,0,0,3,3H25V55H3Zm12-1h8v2H15Z"/><circle class="a" cx="5" cy="5" r="5" transform="translate(33 31)"/><path class="a" d="M14,5H24a1,1,0,0,0,1-1V3H13V4A1,1,0,0,0,14,5Z"/><path class="a" d="M53.5,28A1.5,1.5,0,0,0,52,29.5V39a4,4,0,0,1-4,4H40.36l.671,9.384L38,55.414l-3.03-3.03.669-9.365A9,9,0,0,0,27,52v9h3V48h2V61H44V51.087a3.5,3.5,0,0,1,2.874-3.444l3.2-.581A6,6,0,0,0,55,41.158V29.5A1.5,1.5,0,0,0,53.5,28Z"/><path class="a" d="M49,17.618v4.764L53.764,20Z"/><path class="a" d="M60,12H44a1,1,0,0,0-1,1V27a1,1,0,0,0,1,1h6.351a3.479,3.479,0,0,1,6.3,0H60a1,1,0,0,0,1-1V13a1,1,0,0,0-1-1ZM47,25.618V14.382L58.236,20Z"/><path class="a" d="M33.452,41.31A6.982,6.982,0,0,1,31,36V11H7V49H25.426A11.026,11.026,0,0,1,33.452,41.31ZM29,31H21V29h8Zm-2,2v2H25V33Zm-4,0v2H21V33Zm6-6H21V25h8Zm0-4H21V21h8Zm0-4H21V17h8Zm-6-6h6v2H23ZM19,47H9V37H19Zm0-12H9V25H19Zm0-12H9V13H19v.586l1.293-1.293,1.414,1.414L19,16.414Zm6,24H21V45h4Zm0-4H21V41h4Zm-4-4V37h8v2Z"/></g></svg>