<svg xmlns="http://www.w3.org/2000/svg" width="50.49" height="37.48" viewBox="0 0 50.49 37.48"><defs><style>.a{fill:#a6d141;}</style></defs><g transform="translate(0 -61.892)"><g transform="translate(0 61.892)"><path class="a" d="M106.841,111.706a2.84,2.84,0,1,0,2.84-2.84A2.84,2.84,0,0,0,106.841,111.706Z" transform="translate(-95.612 -103.929)"/><path class="a" d="M32.462,317.115H3.184l1.278-3.5h28.1a9.634,9.634,0,0,1,.269-1.145H3.49L0,320.212l.586,1.548H34.907a9.707,9.707,0,0,1-2.31-4.645Zm-12.867,2.708,1.1-1.781h4.3l1.1,1.781Z" transform="translate(0 -286.132)"/><path class="a" d="M195.294,135.839v1.031a.67.67,0,0,0,.668.674h15.858a9.688,9.688,0,0,1,2.581-1.115v-12.62a.674.674,0,0,0-.672-.673H195.962a.672.672,0,0,0-.668.673v4.427a3.9,3.9,0,0,1,.976,1.444l.189-.13a1.581,1.581,0,0,1,.18-.135v-4.931h16.416V136.2H196.64v-1.259Z" transform="translate(-174.768 -116.699)"/><path class="a" d="M73.609,83.818l-17.767.008,0-7.087h.811v2.211a1.239,1.239,0,0,0,1.238,1.239,1.181,1.181,0,0,0,.552-.143l.007.007,2.146-1.439,1.127-.756.813-.545a1.171,1.171,0,0,0,.291-1.365l4.828-3.453-.367-.513L62.45,75.438l-.032-.028a1.261,1.261,0,0,0-.7-.245,1.522,1.522,0,0,0-.96.366l-1.633,1.122V76.23c-.269-3.226-4.012-3.179-4.012-3.179H53.5l-1.362,2.238-1.372-2.237H49.216c-2.894.052-3.733,1.525-3.975,2.445v-.907h0V64.357H79.673v9.269h0V81.3q.236-.011.474-.012a9.8,9.8,0,0,1,2.307.275V61.892h-40V86.326H71.623A9.8,9.8,0,0,1,73.609,83.818ZM48.4,83.813h-.787l.015-7.044H48.4Z" transform="translate(-37.993 -61.892)"/><path class="a" d="M329.493,259.226a8.37,8.37,0,1,0,8.367,8.37A8.373,8.373,0,0,0,329.493,259.226Zm4.041,8.747-5.159,4.452a.681.681,0,0,1-.669.116.543.543,0,0,1-.384-.5V263.14a.548.548,0,0,1,.384-.5.7.7,0,0,1,.669.113l5.159,4.454A.493.493,0,0,1,333.534,267.973Z" transform="translate(-287.37 -238.486)"/></g></g></svg>