<svg xmlns="http://www.w3.org/2000/svg" width="44.922" height="33.347" viewBox="0 0 44.922 33.347"><defs><style>.a{fill:#b0c1d1;}</style></defs><g transform="translate(0 0)"><path class="a" d="M106.841,111.392a2.526,2.526,0,1,0,2.526-2.526A2.526,2.526,0,0,0,106.841,111.392Z" transform="translate(-96.85 -104.473)"/><path class="a" d="M28.881,316.6H2.833l1.137-3.116h25a8.573,8.573,0,0,1,.24-1.018H3.1L0,319.358l.522,1.377H31.057A8.636,8.636,0,0,1,29,316.6Zm-11.448,2.409.979-1.585h3.824l.979,1.585Z" transform="translate(0 -289.037)"/><path class="a" d="M195.294,134.438v.918a.6.6,0,0,0,.595.6H210a8.621,8.621,0,0,1,2.3-.992V123.735a.6.6,0,0,0-.6-.6H195.889a.6.6,0,0,0-.595.6v3.939a3.472,3.472,0,0,1,.868,1.285l.168-.115a1.4,1.4,0,0,1,.16-.12v-4.387H211.1v10.423h-14.6v-1.12Z" transform="translate(-177.032 -117.409)"/><path class="a" d="M70.173,81.4l-15.808.007,0-6.306h.722v1.967a1.1,1.1,0,0,0,1.1,1.1,1.051,1.051,0,0,0,.491-.127l.007.006,1.909-1.28,1-.673.723-.485a1.042,1.042,0,0,0,.259-1.214l4.3-3.073-.326-.456-4.3,3.076-.029-.025a1.122,1.122,0,0,0-.62-.218,1.354,1.354,0,0,0-.854.326l-1.452,1v-.376c-.239-2.87-3.57-2.828-3.57-2.828H52.282l-1.212,1.991-1.22-1.99H48.47c-2.575.046-3.322,1.357-3.537,2.176V73.19h0V64.085H75.568v8.247h0V79.16q.21-.01.422-.01a8.721,8.721,0,0,1,2.053.245v-17.5H42.455V83.631H68.406A8.718,8.718,0,0,1,70.173,81.4Zm-22.43,0h-.7l.013-6.267h.691Z" transform="translate(-38.485 -61.892)"/><path class="a" d="M328.57,259.226a7.447,7.447,0,1,0,7.444,7.447A7.449,7.449,0,0,0,328.57,259.226Zm3.6,7.782-4.59,3.961a.606.606,0,0,1-.6.1.483.483,0,0,1-.341-.441v-7.924a.487.487,0,0,1,.341-.441.621.621,0,0,1,.6.1l4.59,3.963A.439.439,0,0,1,332.165,267.008Z" transform="translate(-291.092 -240.773)"/></g></svg>