<svg xmlns="http://www.w3.org/2000/svg" width="66.658" height="66.658" viewBox="0 0 66.658 66.658"><defs><style>.a{fill:#fff;}</style></defs><path class="a" d="M63.358,55.326c-6.665-3.507-11.763-5.455-16.291-6.224l.493-.678a1.114,1.114,0,0,0,.18-.922l-1.032-4.125A23.734,23.734,0,0,0,51.1,30V25.552h3.333a1.111,1.111,0,1,0,0-2.222H53.327V22.219a19.039,19.039,0,0,0-2.035-8.6l-9.975,1.918a1.111,1.111,0,0,1-1.3-1.3l1.822-9.566a21.519,21.519,0,0,0-2.953-1.082V3.351A3.354,3.354,0,0,0,35.533,0H31.126a3.355,3.355,0,0,0-3.352,3.351v.235a21.579,21.579,0,0,0-2.952,1.082l1.822,9.566a1.112,1.112,0,0,1-1.3,1.3l-9.974-1.918a19.039,19.039,0,0,0-2.036,8.6V23.33H12.221a1.111,1.111,0,1,0,0,2.222h3.333V30a23.743,23.743,0,0,0,4.4,13.382L18.92,47.5a1.11,1.11,0,0,0,.18.922l.493.678c-4.528.769-9.627,2.716-16.291,6.224A6.164,6.164,0,0,0,0,60.8v4.75a1.111,1.111,0,0,0,1.111,1.111H28.193l10.225-.009c.018,0,.032.01.05.01H65.547a1.111,1.111,0,0,0,1.111-1.111V60.8A6.163,6.163,0,0,0,63.358,55.326ZM17.776,30V25.552H48.883V30A20.421,20.421,0,0,1,44.5,42.7a1.113,1.113,0,0,0-.123.1q-.573.733-1.184,1.383l-.007.007c-.27.286-.551.54-.831.8a13.854,13.854,0,0,1-9.021,3.884A13.858,13.858,0,0,1,24.308,45c-.279-.261-.56-.516-.83-.8l-.007-.007q-.61-.65-1.185-1.383a1.112,1.112,0,0,0-.122-.1A20.422,20.422,0,0,1,17.776,30ZM21.2,47.537l.5-1.993a.054.054,0,0,0,.008.008A16.33,16.33,0,0,0,31.66,51h.007l-3.015,6.782Zm7.929,16.9L29.8,61.1h7.067l.282,1.408.383,1.916Zm8.877-6.654L34.992,51H35a16.329,16.329,0,0,0,9.952-5.446.054.054,0,0,0,.008-.008l.5,1.993Z"/><path class="a" d="M322.507,43.415l-1.39,7.295,7.6-1.462A19.4,19.4,0,0,0,322.507,43.415Z" transform="translate(-278.613 -37.669)"/><path class="a" d="M131.273,43.415a19.4,19.4,0,0,0-6.213,5.833l7.6,1.462Z" transform="translate(-108.507 -37.669)"/></svg>