<svg xmlns="http://www.w3.org/2000/svg" width="30" height="18" viewBox="0 0 30 18"><defs><style>.a{fill:#b0c1d1;}</style></defs><path class="a" d="M15,98.725c-5.732,0-10.93,3.156-14.765,8.283a1.2,1.2,0,0,0,0,1.427c3.836,5.133,9.033,8.29,14.765,8.29s10.93-3.157,14.765-8.283a1.2,1.2,0,0,0,0-1.427C25.93,101.881,20.732,98.725,15,98.725Zm.411,15.338a6.351,6.351,0,1,1,5.885-5.924A6.334,6.334,0,0,1,15.411,114.063Zm-.19-2.928a3.42,3.42,0,1,1,3.173-3.194A3.4,3.4,0,0,1,15.221,111.135Z" transform="translate(0 -98.725)"/></svg>