<svg xmlns="http://www.w3.org/2000/svg" width="27.914" height="43.733" viewBox="0 0 27.914 43.733"><defs><style>.a{fill:#b0c1d1;}</style></defs><g transform="translate(0 0)"><path class="a" d="M127.939,255.883h0a3.722,3.722,0,0,1-3.722-3.722h0a3.722,3.722,0,0,1,3.722-3.722h0a3.722,3.722,0,0,1,3.722,3.722h0A3.722,3.722,0,0,1,127.939,255.883Z" transform="translate(-113.982 -212.15)"/><path class="a" d="M72.655,75.861v.931H80.1a3.722,3.722,0,0,1,3.722-3.722H89.4a3.722,3.722,0,0,1,3.722,3.722v2.792A3.722,3.722,0,0,1,89.4,83.305H86.612a3.722,3.722,0,0,0-3.722,3.722v7.444a3.722,3.722,0,0,0,3.722,3.722h0a3.722,3.722,0,0,0,3.722-3.722V90.749h0a10.235,10.235,0,0,0,10.235-10.235V75.861A10.236,10.236,0,0,0,90.334,65.626H82.89A10.236,10.236,0,0,0,72.655,75.861Z" transform="translate(-72.655 -65.626)"/></g></svg>