<svg xmlns="http://www.w3.org/2000/svg" width="53.26" height="69.56" viewBox="0 0 53.26 69.56"><defs><style>.a{fill:#fff;}</style></defs><g transform="translate(-52.032 0)"><g transform="translate(52.032 0)"><g transform="translate(0)"><path class="a" d="M99.923,261.585a5.138,5.138,0,0,0-2.931-2.5l-7.979-3.674-3.834-3.233-6.16,6.127h0l2.658,17.771a.234.234,0,0,1-.042.173l-2.78,3.8a.235.235,0,0,1-.38,0l-2.779-3.8a.234.234,0,0,1-.043-.173L78.307,258.3h0l-6.16-6.126L68.31,255.41l-7.98,3.674a5.183,5.183,0,0,0-2.931,2.5s-8.674,20.65-3.969,20.65h50.463C108.6,282.235,99.923,261.585,99.923,261.585Z" transform="translate(-52.032 -212.674)"/><path class="a" d="M122.308,20.6a.445.445,0,0,0,.4-.494q-.134-1.144-.268-2.287l-.186-1.6a.445.445,0,0,0-.482-.39h-.345l.007-5.358.181-.066.6-.217a1.287,1.287,0,0,0,0-2.42L100.929.077a1.286,1.286,0,0,0-.875,0L78.766,7.77a1.287,1.287,0,0,0,0,2.42l7.869,2.844a19.249,19.249,0,0,0-.786,6c.138,12.751,7.541,20.355,14.39,20.355,6.769,0,14.252-7.6,14.389-20.355a19.435,19.435,0,0,0-.736-5.833l5.722-2.068.012,4.7h-.346a.444.444,0,0,0-.481.392l-.448,3.883a.445.445,0,0,0,.1.33.438.438,0,0,0,.3.162M100.241,36.29c-5.976,0-10.1-7-10.931-14-.769-6.472,8.59-6.773,9.134-2.762.167,1.233-1.248,2.554-1.088,3.063.792,2.514,13.906-8.206,13.816-.3C111.109,27.867,105.935,36.29,100.241,36.29Z" transform="translate(-73.862 0)"/></g></g></g></svg>