<svg xmlns="http://www.w3.org/2000/svg" xmlns:xlink="http://www.w3.org/1999/xlink" width="130" height="130" viewBox="0 0 130 130"><defs><style>.a{fill:#fff;}.b{fill:#a6d141;}.c{filter:url(#a);}</style><filter id="a" x="0" y="0" width="130" height="130" filterUnits="userSpaceOnUse"><feOffset dy="3" input="SourceAlpha"/><feGaussianBlur stdDeviation="5" result="b"/><feFlood flood-opacity="0.051"/><feComposite operator="in" in2="b"/><feComposite in="SourceGraphic"/></filter></defs><g transform="translate(-1432 -1078)"><g class="c" transform="matrix(1, 0, 0, 1, 1432, 1078)"><circle class="a" cx="50" cy="50" r="50" transform="translate(15 12)"/></g><g transform="translate(1473.647 1118)"><g transform="translate(18.428 1.443)"><path class="b" d="M232.475,16.768H211.314a.955.955,0,0,0-.955.955v7.441l1.059-.658a2.648,2.648,0,0,1,.851-.342V18.678H231.52V32.451H212.269V30.222l-1.91,1.186v2a.955.955,0,0,0,.955.955h21.161a.955.955,0,0,0,.955-.955V17.723A.955.955,0,0,0,232.475,16.768Z" transform="translate(-210.359 -16.768)"/></g><g transform="translate(22.339 6.464)"><path class="b" d="M260.119,75.385a.735.735,0,0,0-1.032-.122L255.8,77.857a2.642,2.642,0,0,1,.8.82,2.671,2.671,0,0,1,.158.3L260,76.417A.734.734,0,0,0,260.119,75.385Z" transform="translate(-255.798 -75.106)"/></g><g transform="translate(8.035 0)"><g transform="translate(0 0)"><circle class="b" cx="2.749" cy="2.749" r="2.749"/></g></g><g transform="translate(4.029 6.373)"><path class="b" d="M61.044,78.41a1.326,1.326,0,0,0-1.826-.427L56.532,79.65c-.011-2.227-.005-1.045-.012-2.48a3.145,3.145,0,0,0-3.138-3.123h-1.3c-1.115,2.891-.756,1.818-1.7,4.272l.4-1.733a.553.553,0,0,0-.056-.381l-.539-.981.478-.87a.2.2,0,0,0-.171-.289H49.17a.2.2,0,0,0-.171.289l.479.872-.54.982a.554.554,0,0,0-.058.374l.345,1.736-1.647-4.272H46.247a3.145,3.145,0,0,0-3.138,3.123l-.049,9.743a1.326,1.326,0,0,0,1.32,1.333h.007a1.326,1.326,0,0,0,1.326-1.32l.049-9.743v0a.263.263,0,0,1,.526,0v13.8a4.425,4.425,0,0,1,3.183,1.155V86.757h.687v6.178a4.437,4.437,0,0,1,.124,4.795,4.83,4.83,0,0,1,1.214.16,4.436,4.436,0,0,1,1.845-.958c0-24.043-.029-9.177-.029-19.746a.278.278,0,0,1,.555,0c0,.93.019,3.838.024,4.85a1.326,1.326,0,0,0,2.026,1.12l4.7-2.918A1.326,1.326,0,0,0,61.044,78.41Z" transform="translate(-43.06 -74.048)"/></g><g transform="translate(34.356 24.877)"><circle class="b" cx="2.909" cy="2.909" r="2.909"/></g><g transform="translate(33.57 31.623)"><path class="b" d="M397.058,370.712a3.329,3.329,0,0,0-3.322-3.305h-7.3a4.434,4.434,0,0,1-.155,4.332,4.864,4.864,0,0,1,3.886,2.229h3.493v-3.222a.294.294,0,0,1,.588-.02h0l.016,3.242h2.808Z" transform="translate(-386.284 -367.407)"/></g><g transform="translate(19.178 31.591)"><path class="b" d="M225.21,369.095a4.417,4.417,0,0,1,.507-2.059h-6.478a4.435,4.435,0,0,1-.175,4.283,4.846,4.846,0,0,1,3.467,1.486,4.81,4.81,0,0,1,3.343-1.377A4.44,4.44,0,0,1,225.21,369.095Z" transform="translate(-219.064 -367.036)"/></g><g transform="translate(20.206 24.845)"><path class="b" d="M233.925,288.655a2.909,2.909,0,1,0,2.909,2.909A2.909,2.909,0,0,0,233.925,288.655Z" transform="translate(-231.015 -288.655)"/></g><g transform="translate(0.353 31.591)"><path class="b" d="M10.928,369.015a4.419,4.419,0,0,1,.466-1.978c-.125-.006.4,0-7.7,0A3.33,3.33,0,0,0,.37,370.338l-.017,3.288H3.161l.016-3.273a.294.294,0,0,1,.588,0v3.272H7.7a4.835,4.835,0,0,1,3.894-2.273A4.412,4.412,0,0,1,10.928,369.015Z" transform="translate(-0.353 -367.033)"/></g><g transform="translate(4.539 24.845)"><path class="b" d="M51.892,288.655a2.909,2.909,0,1,0,2.91,2.909A2.909,2.909,0,0,0,51.892,288.655Z" transform="translate(-48.983 -288.655)"/></g><g transform="translate(8.451 37.398)"><path class="b" d="M122.681,437.892a3.329,3.329,0,0,0-3.322-3.306H112a3.413,3.413,0,0,0-3.418,3.305l-.024-.077a3.33,3.33,0,0,0-3.322-3.305h-7.36a3.413,3.413,0,0,0-3.418,3.305l-.017,3.364H97.25l.016-3.35a.253.253,0,0,1,.506,0v3.349h7.436v-3.349a.271.271,0,0,1,.542,0l.016,3.35h5.606l.016-3.273h0a.253.253,0,0,1,.506,0v3.272h7.436v-3.272a.271.271,0,0,1,.542,0l.016,3.273H122.7Z" transform="translate(-94.442 -434.51)"/></g><g transform="translate(12.522 30.618)"><circle class="b" cx="2.943" cy="2.943" r="2.943"/></g><g transform="translate(26.821 30.695)"><circle class="b" cx="2.943" cy="2.943" r="2.943"/></g></g></g></svg>