<svg xmlns="http://www.w3.org/2000/svg" width="44.003" height="33.618" viewBox="0 0 44.003 33.618"><defs><style>.a{fill:#b0c1d1;}</style></defs><g transform="translate(0 0)"><path class="a" d="M36.4,35.049h0a1.552,1.552,0,0,0-1.1.457,1.568,1.568,0,0,0-.463,1.118V60.235a1.58,1.58,0,0,0,1.577,1.574c3.665.009,9.806.773,14.042,5.206V42.3a1.509,1.509,0,0,0-.216-.8C46.758,35.908,40.077,35.058,36.4,35.049Z" transform="translate(-29.672 -35.049)"/><path class="a" d="M172.369,60.234V36.623a1.568,1.568,0,0,0-.463-1.118,1.552,1.552,0,0,0-1.1-.457h0c-3.673.009-10.355.859-13.832,6.459a1.509,1.509,0,0,0-.216.8v24.71c4.236-4.433,10.377-5.2,14.042-5.206A1.58,1.58,0,0,0,172.369,60.234Z" transform="translate(-133.527 -35.048)"/><path class="a" d="M188.5,71.8h-1.142V91.542a4.028,4.028,0,0,1-4.015,4.019c-3.109.007-8.235.615-11.865,4.051,6.279-1.537,12.9-.538,16.67.322a1.574,1.574,0,0,0,1.927-1.534V73.375A1.576,1.576,0,0,0,188.5,71.8Z" transform="translate(-146.076 -66.356)"/><path class="a" d="M2.716,91.542V71.8H1.574A1.576,1.576,0,0,0,0,73.375V98.4a1.574,1.574,0,0,0,1.927,1.534c3.772-.86,10.391-1.859,16.669-.322-3.63-3.436-8.756-4.044-11.865-4.051A4.028,4.028,0,0,1,2.716,91.542Z" transform="translate(0 -66.356)"/></g></svg>