<svg xmlns="http://www.w3.org/2000/svg" width="20.557" height="27.409" viewBox="0 0 20.557 27.409"><defs><style>.a{fill:#b0c1d1;}</style></defs><path class="a" d="M83.986,10.278H82.273V7.994a7.994,7.994,0,1,0-15.989,0v2.284H64.571a.571.571,0,0,0-.571.571V25.125a2.286,2.286,0,0,0,2.284,2.284H82.273a2.286,2.286,0,0,0,2.284-2.284V10.849A.571.571,0,0,0,83.986,10.278Zm-8,11.929a.571.571,0,0,1-.568.634H73.136a.571.571,0,0,1-.568-.634l.36-3.239a2.259,2.259,0,0,1-.935-1.837,2.284,2.284,0,0,1,4.568,0,2.259,2.259,0,0,1-.935,1.837Zm2.858-11.929H69.71V7.994a4.568,4.568,0,0,1,9.136,0Z" transform="translate(-64)"/></svg>