<svg xmlns="http://www.w3.org/2000/svg" width="37.665" height="43.186" viewBox="0 0 37.665 43.186"><defs><style>.a{fill:#b0c1d1;}</style></defs><path class="a" d="M46.255,15.041a1.355,1.355,0,1,0-1.434,2.3,5.012,5.012,0,0,1,0,8.505L22.6,39.7a5.012,5.012,0,0,1-7.663-4.253V7.736A5.012,5.012,0,0,1,22.6,3.484L35.535,11.55a1.355,1.355,0,1,0,1.434-2.3L24.032,1.185A7.721,7.721,0,0,0,12.226,7.736V35.45A7.625,7.625,0,0,0,16.2,42.2a7.626,7.626,0,0,0,7.832-.2L46.255,28.145a7.721,7.721,0,0,0,0-13.1Z" transform="translate(-12.226 0)"/></svg>