<svg xmlns="http://www.w3.org/2000/svg" width="45.045" height="57.561" viewBox="0 0 45.045 57.561"><defs><style>.a{fill:#a6d141;}</style></defs><g transform="translate(-55.666)"><g transform="translate(60.511 43.95)"><g transform="translate(0)"><path class="a" d="M113.168,391.94a7.151,7.151,0,0,1-8.1,1.213,7.381,7.381,0,0,1-2.492-1.934l-3.748,8.291a.721.721,0,0,0,.85.991l2.729-.76a3.476,3.476,0,0,1,4.066,1.838l1.232,2.55a.721.721,0,0,0,1.305-.017l5.962-13.188A4.474,4.474,0,0,0,113.168,391.94Z" transform="translate(-98.758 -390.926)"/></g></g><g transform="translate(79.653 43.95)"><g transform="translate(0)"><path class="a" d="M285.167,399.51l-3.748-8.291a7.378,7.378,0,0,1-2.492,1.934,7.151,7.151,0,0,1-8.1-1.213,4.473,4.473,0,0,0-1.8-1.014l5.962,13.188a.721.721,0,0,0,1.305.017l1.232-2.55a3.476,3.476,0,0,1,4.066-1.838l2.729.76a.721.721,0,0,0,.85-.991Z" transform="translate(-269.022 -390.926)"/></g></g><g transform="translate(55.666)"><path class="a" d="M98.742,23.361a7.317,7.317,0,0,1-2.2-9.635A4.522,4.522,0,0,0,91.3,7.149a7.318,7.318,0,0,1-8.9-4.288,4.522,4.522,0,0,0-8.412,0,7.317,7.317,0,0,1-8.9,4.288,4.522,4.522,0,0,0-5.245,6.577,7.317,7.317,0,0,1-2.2,9.635,4.522,4.522,0,0,0,1.872,8.2,7.317,7.317,0,0,1,6.162,7.727,4.522,4.522,0,0,0,7.579,3.65,7.317,7.317,0,0,1,9.883,0,4.522,4.522,0,0,0,7.579-3.65,7.318,7.318,0,0,1,6.162-7.727,4.522,4.522,0,0,0,1.872-8.2ZM78.189,37.766a14.8,14.8,0,1,1,14.8-14.8A14.814,14.814,0,0,1,78.189,37.766Z" transform="translate(-55.666)"/></g><g transform="translate(66.15 10.93)"><g transform="translate(0)"><path class="a" d="M160.958,97.225A12.038,12.038,0,1,0,173,109.263,12.052,12.052,0,0,0,160.958,97.225Zm6.169,10.871-7.492,5.472a1.379,1.379,0,0,1-1.943-.321l-2.241-3.191a1.38,1.38,0,1,1,2.258-1.586l1.433,2.041,6.357-4.643a1.379,1.379,0,1,1,1.627,2.228Z" transform="translate(-148.92 -97.225)"/></g></g></g></svg>