<svg xmlns="http://www.w3.org/2000/svg" width="23.109" height="15.406" viewBox="0 0 23.109 15.406"><defs><style>.a{fill:#006c35;}.b{fill:#fff;fill-rule:evenodd;}</style></defs><rect class="a" width="23.109" height="15.406" rx="2"/><path class="b" d="M190.515,118.09a.117.117,0,0,0-.055.021.408.408,0,0,0-.171.288c0,.075-.018.075.032.123s.071.046.143.009a.152.152,0,0,0,.069-.1c.017-.086-.09.041-.1-.055s.045-.125.11-.211c0-.04,0-.073-.024-.074Zm1.05.006c-.02,0-.045.028-.079.09a.383.383,0,0,0-.054.366,1.086,1.086,0,0,1,.06.57,1.1,1.1,0,0,1-.11.155.18.18,0,0,1-.232.032.249.249,0,0,1-.139-.2,2.684,2.684,0,0,0-.021-.63.114.114,0,0,0-.191-.038,1.437,1.437,0,0,0-.346.71c-.053.172-.11.122-.15.053-.1-.091-.1-.8-.221-.687-.188.537.108,1.126.313,1.069.148.061.242-.22.3-.529.041-.087.073-.1.094-.052-.005.41.029.5.135.626a.34.34,0,0,0,.445.008l.183-.183a.11.11,0,0,1,.152-.008c.056.051.049.138.168.2a.37.37,0,0,0,.366-.077c.067-.115.084-.155.115-.2.048-.064.13-.036.13-.015-.008.036-.056.071-.023.135.057.043.07.015.1.006.119-.057.209-.316.209-.316.005-.1-.05-.089-.085-.069s-.049.038-.094.065c-.058.009-.171.047-.227-.039a3.427,3.427,0,0,1-.1-.354c0-.008-.076-.165-.006-.175.036.007.112.026.124-.038.037-.062-.081-.239-.161-.328a.173.173,0,0,0-.259-.008c-.065.06-.056.127-.068.191a.3.3,0,0,0,.061.26.791.791,0,0,1,.145.526.211.211,0,0,1-.19.1c-.05-.011-.133-.033-.176-.355-.033-.244.008-.586-.1-.746-.023-.06-.043-.119-.077-.115Zm-.332.026c-.031,0-.066.039-.094.11a1.785,1.785,0,0,0-.049.334c-.019.083.087.119.136.012a1.023,1.023,0,0,0,.078-.364c-.011-.064-.039-.094-.07-.091Zm1.227.022c-.032,0-.058.022-.067.069a.731.731,0,0,0,.013.266.938.938,0,0,0,.149.226c.212.286.417.573.614.869.031.22.054.436.068.651a13.121,13.121,0,0,1,.013,1.553c.088,0,.23-.143.279-.356a10.355,10.355,0,0,0-.014-1.074c0-.072-.007-.159-.012-.249.23.375.452.773.671,1.209.08-.038.062-.487.015-.55-.175-.377-.417-.749-.494-.892-.028-.052-.123-.2-.235-.362-.021-.237-.043-.438-.058-.5-.036-.251.1.028.084-.117a1.6,1.6,0,0,0-.347-.65c-.053-.075-.052-.09-.133.018a.478.478,0,0,0-.034.288c-.021-.031-.048-.068-.086-.114-.141-.121-.15-.128-.267-.226a.289.289,0,0,0-.161-.062Zm3.636.038c-.016,0-.033.005-.052.034a.219.219,0,0,0-.075.166c.009.132.032.267.041.4l.01.053c-.014-.018-.027-.032-.034-.04-.258-.271.118-.044-.049-.253a2.006,2.006,0,0,0-.3-.3c-.061-.039-.1-.114-.117.014a2.515,2.515,0,0,0-.009.337.454.454,0,0,0,.1.21c.172.211.347.436.524.67.037.478.047.916.085,1.4-.005.2-.068.477-.128.5,0,0-.091.052-.152-.006a1.83,1.83,0,0,1-.221-.3.135.135,0,0,0-.216,0,2.976,2.976,0,0,0-.379.715c-.031.049-.119.092-.217,0a1.009,1.009,0,0,1-.134-.7.771.771,0,0,0-.073.75.589.589,0,0,0,.273.311.192.192,0,0,0,.285-.031c.13-.135.132-.479.193-.547a.114.114,0,0,1,.2-.048.5.5,0,0,0,.185.16.31.31,0,0,0,.408.029.474.474,0,0,0,.218-.266,9.329,9.329,0,0,0,.017-1.5c.092.129.182.261.272.394a9.755,9.755,0,0,1,.044,1.227c-.009.079.274-.235.272-.383,0-.13,0-.248,0-.357.138.22.271.443.4.669.078-.041.051-.483,0-.544-.132-.221-.3-.46-.431-.645-.026-.233-.061-.509-.077-.593-.025-.132-.05-.329-.088-.485a1.656,1.656,0,0,1-.032-.274c.015-.044.073,0,.1-.049a1.749,1.749,0,0,0-.246-.684c-.035-.063-.1-.041-.176.062-.073.068-.046.223-.018.37.072.375.136.757.187,1.138-.094-.14-.209-.309-.322-.472l-.014-.074c0-.007-.016-.307-.029-.378,0-.029-.009-.037.021-.034a.175.175,0,0,0,.057.038c.033.006.061-.049.041-.1l-.3-.558A.084.084,0,0,0,196.095,118.181Zm-9.383.01c-.056,0-.117.033-.093.1-.014.037.109.16.131.228.019.048-.019.2.021.219s.088-.108.108-.222c.011-.063,0-.278-.144-.322Zm10.689,0c-.013,0-.028.022-.052.072a.669.669,0,0,0-.054.409,22.493,22.493,0,0,1,.261,2.657.862.862,0,0,1-.052.219,1.747,1.747,0,0,1-.255.3c-.084.063-.264.123-.323.169-.186.108-.187.231-.037.236a.928.928,0,0,0,.778-.371,1.237,1.237,0,0,0,.126-.48,11.214,11.214,0,0,0-.142-2.35,1.157,1.157,0,0,1-.025-.22c.017-.043.1,0,.132-.045s-.22-.383-.312-.528C197.428,118.22,197.417,118.19,197.4,118.192Zm-2.721.014c-.011,0-.027.018-.056.057a1.271,1.271,0,0,0-.07.578,12.565,12.565,0,0,1,.347,2.782c.088,0,.19-.2.234-.4a3.408,3.408,0,0,0-.023-.607c-.007-.162-.184-1.479-.219-1.6-.043-.232.172-.031.148-.166-.074-.17-.26-.418-.318-.566C194.7,118.24,194.7,118.2,194.679,118.206Zm-6.626.018a.069.069,0,0,0-.053.054c-.005.02.009.054-.01.065s-.051,0-.049-.053a.094.094,0,0,0-.021-.048.042.042,0,0,0-.028-.007c-.018,0-.017.005-.027.02a.167.167,0,0,0-.01.047c0,.02-.01.027-.025.03s-.013,0-.026-.007-.017-.012-.017-.027a.156.156,0,0,0-.009-.05.053.053,0,0,0-.031-.017c-.069,0-.074.08-.07.11-.005.006-.008.147.087.186.127.06.364.035.354-.169,0-.018,0-.079-.006-.1a.055.055,0,0,0-.06-.038Zm1.7,0a.282.282,0,0,0-.115.032.219.219,0,0,0-.038.29c.064.03.129.1.086.131-.182.194-.656.519-.68.579v0s0,0,0,0a0,0,0,0,0,0,0v0h0a1.349,1.349,0,0,0,.353,0h0s0,0,0,0a4.988,4.988,0,0,0,.585-.59c-.025-.021-.048-.037-.073-.059s-.024-.046,0-.069a.192.192,0,0,0,.019-.293.312.312,0,0,0-.144-.029Zm4.445,0c-.013,0-.028.021-.052.071a.812.812,0,0,0-.092.409c.124.857.162,1.607.243,2.464a.338.338,0,0,1-.061.251,2.416,2.416,0,0,1-.817.6c-.034.039.086.2.241.2a.913.913,0,0,0,.7-.559,1,1,0,0,0,.159-.429,9.375,9.375,0,0,0-.174-2.176.358.358,0,0,1,.008-.152c.017-.02.074,0,.1-.049s-.119-.421-.211-.565C194.227,118.256,194.215,118.227,194.2,118.228Zm-6.886.026a.114.114,0,0,0-.086.072,2.474,2.474,0,0,0,.009.4,4.39,4.39,0,0,1,.113.645c.008.3-.176.132-.168-.019a1.372,1.372,0,0,0-.007-.584c-.03-.078-.065-.1-.138-.085-.058,0-.208.159-.249.429a2.537,2.537,0,0,0-.05.262c-.02.139-.113.238-.177-.019-.056-.187-.09-.648-.183-.54-.027.36-.058.993.247,1.058.37.036.166-.625.3-.745.025-.059.072-.06.076.014v.561a.27.27,0,0,0,.21.274c.1-.007.161,0,.2.09q.023.485.046.972s.224.064.235-.546a5.72,5.72,0,0,1-.023-.729c0-.069.09-.072.15-.038.1.068.139.152.29.118.229-.063.366-.174.37-.35a1.522,1.522,0,0,0-.1-.5c.01-.03-.044-.109-.034-.14.041.064.1.059.117,0a.5.5,0,0,0-.2-.3c-.081-.071-.2-.056-.243.092a.809.809,0,0,0,.187.54.529.529,0,0,1,.047.27.144.144,0,0,1-.188-.037s-.182-.136-.182-.167a.652.652,0,0,0-.016-.43.581.581,0,0,0-.12-.237c-.046-.048-.107-.048-.137,0a.816.816,0,0,0,.015.573c.042.123.106.2.076.2-.025.07-.077.053-.115-.027a2,2,0,0,1-.064-.526c-.016-.138-.034-.434-.125-.509a.087.087,0,0,0-.081-.041Zm1.3,0c-.018,0-.039.013-.063.018a.183.183,0,0,0-.129.225c.093.565.154,1,.247,1.561.014.066-.041.153-.113.144-.122-.082-.152-.249-.359-.242a.4.4,0,0,0-.343.323.784.784,0,0,0,0,.37.3.3,0,0,0,.343.085c.091-.038.166-.127.2-.106h0s0,0,0,0c.02.035,0,.329-.43.556-.263.118-.472.146-.584-.068-.07-.134.005-.645-.167-.527-.508,1.308,1.189,1.491,1.379.054.012-.041.05-.081.076-.071s.022.021.026.05c-.039,1.3-1.313,1.391-1.529.981a1.262,1.262,0,0,1-.075-.44.219.219,0,0,0-.052-.141c-.052-.039-.121.062-.136.238a1.577,1.577,0,0,0-.015.316c.068,1.028,1.707.586,1.973-.263a2.828,2.828,0,0,0,.041-.811h.012c.163.175.391.022.441-.038a.073.073,0,0,1,.113-.011.263.263,0,0,0,.4-.113,3.559,3.559,0,0,0,.055-.487.493.493,0,0,0-.176.073.047.047,0,0,0-.013.023l-.021.14a.036.036,0,0,1,0,.011.045.045,0,0,1-.015.014c-.029.016-.08.007-.083-.036-.039-.179-.2-.2-.3.075-.066.054-.187.064-.2-.016.016-.186-.059-.211-.209-.123-.048-.368-.1-.72-.144-1.088.063,0,.12.044.177-.028a2.07,2.07,0,0,0-.267-.621h0l-.011-.011,0,0,0,0-.01,0a.05.05,0,0,0-.02,0Zm5.064,0c-.065,0-.137.039-.109.12-.016.044.14.195.165.277.045.127-.035.247.012.265s.1-.131.126-.27a.419.419,0,0,0-.168-.39.135.135,0,0,0-.027,0Zm-3.945.139a.1.1,0,0,1,.083.063c.019.041.009.08-.021.088s-.07-.02-.089-.061-.009-.081.021-.089Zm7.318.19a.1.1,0,0,0-.1.131c-.015.048.126.211.149.3.021.063-.031.268.012.287s.095-.141.115-.292c.011-.082-.05-.371-.153-.423a.108.108,0,0,0-.025,0Zm-4.046.1c.005.024.011.048.014.073.012.053.023.106.034.159-.047-.064-.085-.116-.1-.135C192.843,118.659,192.952,118.7,193,118.688Zm.932.458a.071.071,0,0,0-.053.055c-.005.02.01.053-.009.064s-.052,0-.05-.052a.1.1,0,0,0-.021-.049.042.042,0,0,0-.028-.007c-.018,0-.017.005-.027.02a.177.177,0,0,0-.01.047c0,.02-.009.027-.024.03s-.014,0-.027-.007-.017-.012-.017-.027a.156.156,0,0,0-.009-.05.052.052,0,0,0-.031-.016c-.069,0-.073.079-.069.109-.005.006-.009.148.086.187.127.06.365.034.355-.17,0-.018,0-.079-.007-.1a.055.055,0,0,0-.06-.038Zm-4.256.042a.1.1,0,0,0-.06.018.261.261,0,0,0-.086.346.169.169,0,0,0,.182.059c.11.014.175-.206.175-.206s0-.062-.127.055c-.055.01-.062-.01-.076-.04a.273.273,0,0,1,.017-.172C189.718,119.213,189.706,119.191,189.679,119.189Zm6.016.028a.142.142,0,0,0-.145.122c0,.05.023.078.018.123-.007.026-.033.043-.1.012.01-.009-.041-.082-.041-.082-.05-.03-.116,0-.16.03a.243.243,0,0,0-.014.194c.072.132.317.358.434.36,0-.119.014-.278.02-.376,0-.037.011-.078.047-.088s.1.036.1,0a.511.511,0,0,0-.065-.241A.121.121,0,0,0,195.7,119.216Zm-4.98.415,0,0,0,0a.615.615,0,0,1-.06.054c-.055.063-.065.106-.062.232,0,.013.1.3.191.494a1.532,1.532,0,0,1,.072.665,1.638,1.638,0,0,1-.672.7.351.351,0,0,1-.281,0h0a.174.174,0,0,1-.074-.16.005.005,0,0,0,0,0h0a1.584,1.584,0,0,0,.675-.7.715.715,0,0,0,.018-.5.478.478,0,0,0-.114-.233h0c.038-.018.136.054.151.009a.732.732,0,0,0-.194-.357.164.164,0,0,0-.238-.014c-.082.045-.1.209-.06.351.044.108.162.126.246.343h0c0,.014.029.162-.013.222a2.654,2.654,0,0,1-.507.476l0,0h-.006v0c0-.009,0-.031,0-.066,0-.065.024-.213.022-.238h0c-.146.094-.194.383-.221.468a6.921,6.921,0,0,0-1.029.7c-.126.2.866-.225.981-.276l0,0c.022.024.024.108.089.184a.525.525,0,0,0,.535.172,1.7,1.7,0,0,0,.773-.643c.03-.044.077-.078.12-.044a1.211,1.211,0,0,0,1.1.576c.124-.151.065-.225.014-.257-.016-.01-.267-.108-.306-.206s.035-.171.155-.232a5.389,5.389,0,0,0,1.012-.194.891.891,0,0,1,.112-.347.164.164,0,0,1,.057-.062h0v0a.032.032,0,0,0,0-.01l-.056-.033-1.1,0a.119.119,0,0,1-.03-.015l0,0h0v0h0v0a.082.082,0,0,1,.035-.02c.263-.036.73-.112.761-.561a.369.369,0,1,0-.724.015c-.01.06.02.179-.041.193-.4.037-.846.29-.861.472h-.018a.106.106,0,0,1-.055-.112,2.171,2.171,0,0,0-.277-.942c-.057-.057-.082-.08-.1-.083h-.008Zm1.053.166a.069.069,0,0,0-.053.054c-.005.02.01.054-.009.064s-.052,0-.05-.052a.1.1,0,0,0-.021-.049.039.039,0,0,0-.027-.007c-.018,0-.018.005-.028.02a.175.175,0,0,0-.01.047c0,.02-.009.027-.024.03s-.013,0-.026-.007-.018-.012-.018-.027a.16.16,0,0,0-.008-.05.055.055,0,0,0-.032-.016c-.069,0-.073.079-.069.109-.005.006-.009.148.086.187.127.06.429.025.355-.17,0-.018,0-.079-.007-.1A.054.054,0,0,0,191.769,119.8Zm4.251.174h-.011s-.587.418-.6.432c-.058.052-.029.234,0,.213a2.34,2.34,0,0,0,.622-.431C196.056,120.188,196.068,119.98,196.02,119.971Zm-3.7.062a.15.15,0,0,1,.086.023c.044.025.071.064.067.091,0,0,0,0,0,0l0,0v.007l-.006.007a.107.107,0,0,1-.116-.01.116.116,0,0,1-.067-.091v0a.032.032,0,0,1,0-.01l0,0h0l0,0A.056.056,0,0,1,192.324,120.033Zm-5.143.106a.978.978,0,0,0-.762.617c.321-.154.636-.3.963-.462C187.33,120.216,187.379,120.145,187.181,120.139Zm.986.137a.082.082,0,0,1,.078.057.1.1,0,0,1-.017.1s0,0,0,0v0c-.013.016-.058.01-.09.01a.087.087,0,0,1-.081-.039c-.011-.035.023-.069.038-.1h0l.007-.008a.1.1,0,0,1,.053-.023Zm7.739.121a.1.1,0,0,0-.082.14c-.015.048.073.216.1.305.021.063-.026.243.016.262s.143-.107.14-.267c.011-.082-.029-.386-.133-.437A.1.1,0,0,0,195.906,120.4Zm-6.572.3c-.048,0-.091.029-.071.1,0,.049.135.108.143.221.02.047-.029.2.012.21s.09-.1.11-.214c.011-.061-.047-.272-.146-.31A.17.17,0,0,0,189.333,120.694Zm1.967.269h.013a3.412,3.412,0,0,0,.46.053c.128.008.191.108.071.15s-.232.072-.232.243a.236.236,0,0,1,0,.149l0,0H191.6l-.006,0h-.006c-.028,0-.069-.023-.1-.038a.624.624,0,0,1-.306-.451.114.114,0,0,1,.116-.119Zm-4.8.209c-.008,0-.023.023-.043.049a.955.955,0,0,0-.1.847.211.211,0,0,0,.205.068.377.377,0,0,0,.137-.364c-.038-.059-.068-.069-.106-.018-.08.162-.113.051-.12-.039a2.089,2.089,0,0,1,.023-.456c.01-.064.01-.087,0-.087Zm6.167.379a.083.083,0,0,0-.042.009.768.768,0,0,0-.17.145c-.025.019-.022.035-.014.068s.054.031.092.01.076.027.072.089a.114.114,0,0,0,.011.111.085.085,0,0,0,.108.014,2.04,2.04,0,0,1,.372-.13c.045,0,.043-.122-.029-.126a.423.423,0,0,0-.273.083c-.057.013-.067-.022-.08-.053-.015-.078.033-.132.023-.191A.135.135,0,0,0,192.663,121.55Zm3.949.147c-.023,0-.047,0-.082.007s-.051.025-.058.07c0,.069.045.066.089.093a.075.075,0,0,1,0,.114c-.041.038-.071.059-.112.1-.019.033-.032.084.028.1.11.031.364-.134.364-.138a.08.08,0,0,0,.024-.09c-.024-.027-.078-.011-.115-.015-.017,0-.074-.008-.047-.059a.34.34,0,0,0,.046-.089c.017-.038,0-.063-.06-.084A.341.341,0,0,0,196.612,121.7Zm-1.65,3.34h0a.173.173,0,0,0-.06.32c-1.929,0-4.888-.033-5.523-.033-.355,0-1.479-.042-1.5-.042a1.138,1.138,0,0,0,1.047.431c.857,0,4.826-.011,5.955-.011a.4.4,0,0,0,.07.414l0,0,.008,0h0c.075.018.108-.037.133-.076a7.74,7.74,0,0,0,.867,0h0c.042.062.084.121.165.111.141-.03.252-.045.255-.331,0,0-.014-.487-.334-.456-.076.011-.288.033-.288.033-.246-.029-.426-.032-.7-.042.025-.032.07-.163.015-.211a.089.089,0,0,0-.066-.016h-.007l0,0,0,0c-.014-.02-.022-.07-.031-.083h-.006Zm.131.7h0c.281.014.546,0,.827.016a.1.1,0,0,1-.007.141l0,0H195.9l-.236-.007a.056.056,0,0,0,0-.013c-.022-.064-.179-.06-.216-.01l0,0,0,0,0,0a.034.034,0,0,0,0,.007.043.043,0,0,0,0,.008,2.211,2.211,0,0,1-.358-.009C195.046,125.835,195.05,125.753,195.093,125.733Z" transform="translate(-180.554 -114.451)"/></svg>