<svg xmlns="http://www.w3.org/2000/svg" width="50.659" height="49.591" viewBox="0 0 50.659 49.591"><defs><style>.a{fill:#a6d141;}</style></defs><g transform="translate(0 -0.354)"><path class="a" d="M18.156,5.032l-1.21-1.213a11.876,11.876,0,0,1,16.767,0L32.5,5.032A10.158,10.158,0,0,0,18.156,5.032Zm13.464.883a8.907,8.907,0,0,0-12.583,0l1.21,1.211a7.206,7.206,0,0,1,10.162,0ZM21.2,8.077l1.213,1.211a4.134,4.134,0,0,1,5.838,0l1.216-1.213A5.853,5.853,0,0,0,21.2,8.077ZM26.292,29a3.746,3.746,0,1,0-3.748-3.745A3.749,3.749,0,0,0,26.292,29Zm-9.651.731A3.243,3.243,0,1,0,13.4,26.493,3.247,3.247,0,0,0,16.64,29.734Zm18.246.908a2.623,2.623,0,1,0-2.625-2.621A2.623,2.623,0,0,0,34.887,30.642ZM16.66,34.481H38.539V32.2a2.047,2.047,0,0,0-1.669-2.013,2.973,2.973,0,0,1-1.965.771v0c-.009,0-.009,0-.02,0a.13.13,0,0,0-.015,0v0a2.938,2.938,0,0,1-1.963-.771,2.041,2.041,0,0,0-1.413,1.062v-.026a2.922,2.922,0,0,0-2.383-2.872,4.19,4.19,0,0,1-2.8,1.1v0c-.009,0-.015,0-.027,0s-.012,0-.021,0v0a4.163,4.163,0,0,1-2.8-1.1,2.917,2.917,0,0,0-2.379,2.759,2.527,2.527,0,0,0-2-1.937,3.635,3.635,0,0,1-2.426.952h-.042a3.62,3.62,0,0,1-2.426-.952,2.533,2.533,0,0,0-2.069,2.483v2.816h4.535l0,0Zm34-17.778V39.284a3.432,3.432,0,0,1-3.421,3.423H30.6L25.33,49.945l-5.267-7.238H3.421A3.432,3.432,0,0,1,0,39.284V16.7a3.431,3.431,0,0,1,3.421-3.421H47.238A3.429,3.429,0,0,1,50.659,16.7ZM5.134,28A1.712,1.712,0,1,0,3.421,29.7,1.715,1.715,0,0,0,5.134,28Zm40.1-12.336H6.332V40.328h12l-.027-.033h2.233l4.791,6.585L30.12,40.3h2.233l-.029.033h12.9l0-24.668Zm2.96,8.72a.411.411,0,1,0-.823,0v7.224a.411.411,0,1,0,.823,0Z"/></g></svg>