<svg xmlns="http://www.w3.org/2000/svg" width="44" height="44" viewBox="0 0 44 44"><defs><style>.a{fill:#a6d141;}</style></defs><g transform="translate(-0.001 -0.001)"><path class="a" d="M73.286,285.753a1.29,1.29,0,0,0,.24,1.49l.315.315c.911-1.079,1.972-2.25,3.26-3.538.091-.091.185-.135.276-.219l-2.028-2.028c-1.179,2.132-1.866,3.589-2.063,3.979Zm0,0" transform="translate(-66.862 -257.557)"/><path class="a" d="M166.422,389.838c-1.29,1.29-2.459,2.354-3.532,3.265l.427.427a1.288,1.288,0,0,0,1.5.235c.668-.344,1.718-.838,3.947-2.08l-2.124-2.124C166.557,389.654,166.513,389.747,166.422,389.838Zm0,0" transform="translate(-148.891 -356.083)"/><path class="a" d="M71.31,311.7c-.932-.932-3.551-.1-4.782,1.134-4.117,4.117-5.976,7.036-6.811,8.759a1.289,1.289,0,0,0,1.723,1.721c1.685-.818,4.568-2.669,8.734-6.834,1.353-1.354,2.021-3.895,1.137-4.779Zm0,0" transform="translate(-54.467 -284.548)"/><path class="a" d="M4.024,166.871.378,170.517a1.289,1.289,0,0,0,1.245,2.157,10.593,10.593,0,0,1,4.872-.452,69.173,69.173,0,0,1,5.336-8.141c-1.093-.7-4.706-.311-7.807,2.79Zm0,0" transform="translate(0 -149.707)"/><path class="a" d="M246.35,388a1.287,1.287,0,0,0,1.491-.239l3.646-3.646c2.823-2.824,3.32-6.466,2.679-7.622a73.571,73.571,0,0,1-8.147,5.3c.18,1.014.06,2-.365,4.872A1.286,1.286,0,0,0,246.35,388Zm0,0" transform="translate(-224.53 -344.137)"/><path class="a" d="M285.774,138.44a3.867,3.867,0,1,0,5.469,0A3.872,3.872,0,0,0,285.774,138.44Zm0,0" transform="translate(-260.182 -125.508)"/><path class="a" d="M398.373,1.259A1.287,1.287,0,0,0,397.184.07a25.484,25.484,0,0,0-9.41,1.1,10.822,10.822,0,0,0,3.206,6.3,10.788,10.788,0,0,0,6.42,3.2,26.657,26.657,0,0,0,.974-9.405Zm0,0" transform="translate(-354.448 0)"/><path class="a" d="M139.221,31.219A13.542,13.542,0,0,1,135.345,24C127.6,27.171,120.195,34.1,114.339,43.842l2.909,2.909c1.988-.807,4.4-1.02,5.931.51s1.315,3.945.509,5.93l3,3c7.493-4.516,16.217-11.631,19.927-21.1a13.478,13.478,0,0,1-7.4-3.88ZM137.4,42.157a6.445,6.445,0,1,1,0-9.115A6.453,6.453,0,0,1,137.4,42.157Zm0,0" transform="translate(-104.513 -21.933)"/></g></svg>