<svg xmlns="http://www.w3.org/2000/svg" width="66.311" height="66.311" viewBox="0 0 66.311 66.311"><defs><style>.a{fill:#fff;}</style></defs><g transform="translate(21.499)"><path class="a" d="M177.656,0a11.721,11.721,0,1,0,11.656,11.786A11.78,11.78,0,0,0,177.656,0Z" transform="translate(-166)"/></g><g transform="translate(21.475 23.442)"><path class="a" d="M181.376,181h-7.771a17.42,17.42,0,0,0-7.8,1.913,48.747,48.747,0,0,1,11.681,4.84,48.75,48.75,0,0,1,11.681-4.84A17.42,17.42,0,0,0,181.376,181Z" transform="translate(-165.81 -181)"/></g><g transform="translate(58.54 35.098)"><path class="a" d="M455.885,271A3.885,3.885,0,0,0,452,274.885v7.771a3.885,3.885,0,1,0,7.771,0v-7.771A3.885,3.885,0,0,0,455.885,271Z" transform="translate(-452 -271)"/></g><g transform="translate(0 35.098)"><path class="a" d="M3.885,271A3.885,3.885,0,0,0,0,274.885v7.771a3.885,3.885,0,1,0,7.771,0v-7.771A3.885,3.885,0,0,0,3.885,271Z" transform="translate(0 -271)"/></g><g transform="translate(3.885 27.327)"><path class="a" d="M31.943,211A1.942,1.942,0,0,0,30,212.943v1.943a7.778,7.778,0,0,1,7.771,7.771v7.771A7.778,7.778,0,0,1,30,238.2v1.943a1.942,1.942,0,0,0,1.943,1.943c9.96,0,17.923,3.145,25.385,7.9v-32.69C49.832,213,41.773,211,31.943,211Z" transform="translate(-30 -211)"/></g><g transform="translate(35.098 27.327)"><path class="a" d="M298.327,214.885v-1.943A1.942,1.942,0,0,0,296.385,211c-9.83,0-17.89,2-25.385,6.294v32.69c7.461-4.755,15.425-7.9,25.385-7.9a1.942,1.942,0,0,0,1.943-1.943V238.2a7.778,7.778,0,0,1-7.771-7.771v-7.771A7.778,7.778,0,0,1,298.327,214.885Z" transform="translate(-271 -211)"/></g></svg>