<svg xmlns="http://www.w3.org/2000/svg" width="41.999" height="44.171" viewBox="0 0 41.999 44.171"><defs><style>.a{fill:#b0c1d1;}</style></defs><g transform="translate(0)"><g transform="translate(7.968 29.266)"><path class="a" d="M111.084,348.682l-1.463-9.457h-4.67l1.572,10.163a2.308,2.308,0,0,0,4.561-.705Z" transform="translate(-104.951 -339.225)"/></g><g transform="translate(18.795 29.266)"><path class="a" d="M231.925,339.225l0,0-1.462,9.455a2.308,2.308,0,0,0,4.561.705l1.572-10.163Z" transform="translate(-230.439 -339.225)"/></g><g transform="translate(0 3.63)"><path class="a" d="M52.007,61.189H50.838v-.106a2.141,2.141,0,0,0-1.739-2.1l5.217-11.253a.973.973,0,0,0-.454-1.283l-8.7-4.271a.972.972,0,0,0-1.363,1.143,1.641,1.641,0,0,0-.979,1.656,3.706,3.706,0,0,0-3.383,1.769.3.3,0,0,0,.126.426l6.1,2.954a.3.3,0,0,0,.412-.165,3.706,3.706,0,0,0-.708-3.751,1.637,1.637,0,0,0,.746-1.4l6.046,2.967-5.178,11.17H45.62a2.142,2.142,0,0,0-2.136,2.241H39.821a2.063,2.063,0,0,0,1.54-2.628l-2.676-8.64a4.646,4.646,0,0,0-4.459-3.287h-.551a5.887,5.887,0,0,1-8.821,0,4.645,4.645,0,0,0-4.331,3.285l-2.676,8.64a2.063,2.063,0,0,0,1.54,2.628H14.952a2.364,2.364,0,0,0-.195,4.72v15a1.714,1.714,0,0,0,3.427,0V65.918H48.467V80.907a1.714,1.714,0,0,0,3.427,0V65.918h.112a2.373,2.373,0,1,0,0-4.729ZM31.713,57.109a2.051,2.051,0,0,0-.914.216,3.782,3.782,0,0,1-.1,3.865H27.929a2.063,2.063,0,0,0-.433-4.081H22.618l1.159-3.742v2.02h2.176l-.8-1.832a1.081,1.081,0,0,1,1.98-.869l1.23,2.8a3.764,3.764,0,0,1,1.247.542,3.767,3.767,0,0,1,2.108-.642h3.681V53.242l1.2,3.867H31.713Z" transform="translate(-12.588 -42.079)"/></g><g transform="translate(12.399 0)"><g transform="translate(0)"><ellipse class="a" cx="4.277" cy="4.277" rx="4.277" ry="4.277"/></g></g></g></svg>