<svg xmlns="http://www.w3.org/2000/svg" width="42.356" height="47.624" viewBox="0 0 42.356 47.624"><defs><style>.a{fill:#a6d141;}</style></defs><g transform="translate(-28.32)"><g transform="translate(39.552 28.05)"><path class="a" d="M149.077,301.556v13.422h0a1.269,1.269,0,0,0,2.537,0V301.556Z" transform="translate(-149.077 -301.556)"/></g><g transform="translate(56.87 28.05)"><g transform="translate(0)"><path class="a" d="M335.253,301.556v13.422a1.269,1.269,0,0,0,2.537,0V301.556Z" transform="translate(-335.253 -301.556)"/></g></g><g transform="translate(44.212 28.05)"><path class="a" d="M199.172,301.556v15.3a2.418,2.418,0,1,0,4.835,0v-15.3Z" transform="translate(-199.172 -301.556)"/></g><g transform="translate(50.091 28.05)"><path class="a" d="M262.376,301.556v15.3a2.418,2.418,0,1,0,4.835,0v-15.3Z" transform="translate(-262.376 -301.556)"/></g><g transform="translate(45.393 0)"><g transform="translate(0 0)"><circle class="a" cx="4.176" cy="4.176" r="4.176"/></g></g><g transform="translate(36.238 8.486)"><g transform="translate(0)"><path class="a" d="M141.347,91.346a2.015,2.015,0,0,0-2.569,1.232l-1.5,4.269-.386-1a5.4,5.4,0,0,0-5-3.423H121.469a5.385,5.385,0,0,0-4.848,3.07l-2.978,6.3a2.016,2.016,0,0,0,1.821,2.876h.005l7.749-.019a2.015,2.015,0,0,0,0-4.029h-.005l-4.559.011,1.615-3.416a.608.608,0,0,1,1.157.26v1.3l1.783,0h.01a3.86,3.86,0,0,1,3.281,5.894h5.6V97.5a.539.539,0,0,1,1.041-.195l2.357,6.079a2.015,2.015,0,0,0,3.779-.06l3.31-9.412A2.015,2.015,0,0,0,141.347,91.346Z" transform="translate(-113.448 -91.231)"/></g></g><g transform="translate(28.32 23.766)"><g transform="translate(0)"><path class="a" d="M69.454,255.506H29.542a1.222,1.222,0,0,0,0,2.444h1.315v19.539a1.875,1.875,0,0,0,3.75,0V257.95H64.5v19.539a1.875,1.875,0,0,0,3.75,0V257.95h1.2a1.222,1.222,0,1,0,0-2.444Z" transform="translate(-28.32 -255.506)"/></g></g></g></svg>