<svg xmlns="http://www.w3.org/2000/svg" width="48.772" height="42.167" viewBox="0 0 48.772 42.167"><defs><style>.a{fill:#a6d141;}</style></defs><g transform="translate(0 -29.59)"><g transform="translate(0 29.59)"><g transform="translate(0 0)"><path class="a" d="M124.057,208.242h20.091c1.873,0-1.58-8.222-1.58-8.222a2.045,2.045,0,0,0-1.167-1l-3.177-1.463-1.526-1.287-2.453,2.439h0l1.058,7.075a.094.094,0,0,1-.017.069l-1.106,1.514a.094.094,0,0,1-.076.038.093.093,0,0,1-.075-.038l-1.107-1.514a.093.093,0,0,1-.017-.069l1.058-7.075h0l-2.452-2.439-1.526,1.287-3.177,1.463a2.066,2.066,0,0,0-1.167,1S122.184,208.242,124.057,208.242Z" transform="translate(-109.717 -177.672)"/><path class="a" d="M172.89,92.8c2.423,0,5.674-3.028,5.729-8.1.035-3.523-1.643-5.631-5.729-5.631s-5.765,2.108-5.729,5.631C167.216,89.772,170.054,92.8,172.89,92.8Zm-1.152-6.689c2.963.316,5.546-3.828,5.5-.118-.025,2.221-2.085,5.575-4.352,5.575-2.379,0-4.021-2.787-4.352-5.574C168.179,82.971,173.725,83.66,171.738,86.11Z" transform="translate(-148.504 -73.542)"/><path class="a" d="M46.54,29.59H2.232A2.232,2.232,0,0,0,0,31.822V63.45a2.232,2.232,0,0,0,2.232,2.232H46.54a2.232,2.232,0,0,0,2.232-2.232V31.822A2.232,2.232,0,0,0,46.54,29.59ZM45.424,62.334H3.348v-29.4H45.424Z" transform="translate(0 -29.59)"/><path class="a" d="M0,374.967A1.233,1.233,0,0,0,1.233,376.2H13.1v-2.466H1.233A1.233,1.233,0,0,0,0,374.967Z" transform="translate(0 -335.325)"/><path class="a" d="M189.818,373.734H160.153V376.2h29.665a1.233,1.233,0,0,0,0-2.466Z" transform="translate(-142.279 -335.325)"/><path class="a" d="M126.983,362.154a1.485,1.485,0,0,0-1.483,1.483v2.085a1.483,1.483,0,1,0,2.965,0v-2.085A1.484,1.484,0,0,0,126.983,362.154Z" transform="translate(-111.493 -325.038)"/></g></g></g></svg>