<svg xmlns="http://www.w3.org/2000/svg" width="249.733" height="47" viewBox="0 0 249.733 47"><defs><style>.a,.b{fill:#fff;}.b{font-size:25px;font-family:NotoKufiArabic, Noto Kufi Arabic;}.c{font-family:SegoeUI, Segoe UI;}</style></defs><g transform="translate(-18 0.494)"><g transform="translate(237.009 8.506)"><path class="a" d="M15.366,0h-.008A15.352,15.352,0,0,0,2.925,24.366L1.01,30.073l5.9-1.888A15.359,15.359,0,1,0,15.366,0ZM24.3,21.693a4.335,4.335,0,0,1-3.015,2.168c-.8.171-1.851.307-5.381-1.156-4.514-1.87-7.422-6.458-7.648-6.755a8.774,8.774,0,0,1-1.824-4.634A4.9,4.9,0,0,1,8.007,7.577a2.232,2.232,0,0,1,1.571-.551c.19,0,.361.01.515.017.451.019.678.046.975.758.371.893,1.273,3.1,1.381,3.324a.914.914,0,0,1,.065.831,2.655,2.655,0,0,1-.5.7c-.227.261-.442.461-.668.741-.207.244-.442.505-.181.956a13.635,13.635,0,0,0,2.492,3.1,11.294,11.294,0,0,0,3.6,2.222.971.971,0,0,0,1.083-.171,18.586,18.586,0,0,0,1.2-1.59.857.857,0,0,1,1.1-.334c.415.144,2.61,1.229,3.061,1.454s.749.334.858.524A3.826,3.826,0,0,1,24.3,21.693Z"/></g><text class="b" transform="translate(110 31.506)"><tspan x="-91.168" y="0">‪</tspan><tspan y="0">‎‪</tspan><tspan class="c" y="0">+965</tspan><tspan y="0"> </tspan><tspan class="c" y="0">511</tspan><tspan y="0"> </tspan><tspan class="c" y="0">11845</tspan><tspan y="0">‬‬</tspan></text></g></svg>